# xmcd
#
# Track frame offsets:
#	150
#	11124
#	26974
#	42571
#	56629
#	69368
#	79469
#	91932
#	105567
#	123221
#	135146
#	143997
#	152940
#	165860
#	182484
#	200699
#	212773
#	228130
#	246982
#	260445
#	274770
#	292345
#	310177
#	323930
#
# Disc length: 4562 seconds
#
# Revision: 0
# Processed by: cddbd v1.5.2PL0 Copyright (c) Steve Scherf et al.
# Submitted via: EasyCDDAExtractor 16.0.6.1
#
DISCID=5e11d018
DTITLE=Tapio Heinonen - en kadu mit‰‰n - kaikki levytykset cd 3
DYEAR=1900
DGENRE=
TTITLE0=Oottakos kuullu
TTITLE1=Mies kapakass se kerran
TTITLE2=Yksi ruusu on kasvanut laaksossa
TTITLE3=Nikkarin  kerttu
TTITLE4=Aamulla varhain
TTITLE5=Meinasin meinasin
TTITLE6=Hyv‰‰ hyv‰‰ iltaa
TTITLE7=Tuoll on mun kultani
TTITLE8=Imatran rannalla
TTITLE9=L‰ksin min‰ kes‰yˆn‰ k‰ym‰‰n
TTITLE10=Pienen lammen rannalla
TTITLE11=Kukapa se saunan l‰mmitt‰isi
TTITLE12=Vanha tie
TTITLE13=P‰iv‰t kuin unta
TTITLE14=Nousin ilmalaivaan
TTITLE15=Ben
TTITLE16=Tuo onneton
TTITLE17=Kuolleet lehdet
TTITLE18=Luonnonlapsi
TTITLE19=Kaunein aamuisin
TTITLE20=Rannalla
TTITLE21=Sun piirtees viel‰ n‰‰n
TTITLE22=Kes‰aamu helsingiss‰
TTITLE23=Minun tieni
EXTD=
EXTT0=
EXTT1=
EXTT2=
EXTT3=
EXTT4=
EXTT5=
EXTT6=
EXTT7=
EXTT8=
EXTT9=
EXTT10=
EXTT11=
EXTT12=
EXTT13=
EXTT14=
EXTT15=
EXTT16=
EXTT17=
EXTT18=
EXTT19=
EXTT20=
EXTT21=
EXTT22=
EXTT23=
PLAYORDER=
